<svg width="1008" height="485" viewBox="0 0 1008 485" fill="none" xmlns="http://www.w3.org/2000/svg">
    <g clip-path="url(#clip0_239_228)">
        <rect width="1008" height="485" fill="white"/>
        <rect y="-2" width="1008" height="196" fill="#004444"/>
        <path
            d="M1007.99 119.067C1007.08 119.029 1006.14 119 1005.19 119C964.299 119 961.747 154.147 904.854 154.147C874.641 154.147 860.991 136.888 834.16 136.888C805.442 136.888 791.516 154.147 763.97 154.147C734.09 154.147 732.452 133.392 706.372 133.392C685.598 133.392 674.264 150.566 642.974 150.566C613.532 150.566 605.265 119 568.917 119C527.922 119 513.444 154.147 468.057 154.147C437.844 154.147 421.566 136.888 397.363 136.888C368.645 136.888 354.72 154.147 327.173 154.147C297.294 154.147 295.655 133.392 269.576 133.392C248.802 133.392 237.467 150.566 206.178 150.566C176.736 150.566 168.468 119 132.121 119C95.7737 119 77.3047 155.376 38.8524 155.376C24.6411 155.376 12.4968 150.451 0 142.536V602.698H1008V119.067H1007.99Z"
            fill="#125151"/>
        <path
            d="M1007.99 300.535C989.093 302.097 977.368 317.566 947.65 317.566C917.932 317.566 909.94 286 873.593 286C832.702 286 830.15 321.147 773.257 321.147C743.044 321.147 729.394 303.888 702.562 303.888C673.845 303.888 659.919 321.147 632.373 321.147C602.493 321.147 600.855 300.392 574.775 300.392C554.001 300.392 542.667 317.566 511.377 317.566C481.935 317.566 473.668 286 437.32 286C396.325 286 381.847 321.147 336.46 321.147C306.247 321.147 289.969 303.888 265.766 303.888C237.048 303.888 223.123 321.147 195.576 321.147C165.697 321.147 164.058 300.392 137.979 300.392C117.205 300.392 105.87 317.566 74.5806 317.566C45.1389 317.566 36.8712 286 0.523874 286C0.342899 286 0.17145 286 0 286V649.816H1008V300.535H1007.99Z"
            fill="#245E5E"/>
        <path
            d="M1008 431.907C1007.75 431.907 1007.5 431.888 1007.25 431.888C978.53 431.888 964.604 449.147 937.058 449.147C907.178 449.147 905.54 428.392 879.46 428.392C858.686 428.392 847.352 445.566 816.062 445.566C786.62 445.566 778.353 414 742.005 414C701.115 414 698.562 449.147 641.669 449.147C611.456 449.147 597.807 431.888 570.975 431.888C542.257 431.888 528.332 449.147 500.785 449.147C470.905 449.147 469.267 428.392 443.188 428.392C422.414 428.392 411.079 445.566 379.79 445.566C350.348 445.566 342.08 414 305.733 414C264.737 414 250.259 449.147 204.873 449.147C174.66 449.147 158.381 431.888 134.178 431.888C105.461 431.888 91.5351 449.147 63.9888 449.147C34.1089 449.147 32.4707 428.392 6.39126 428.392C4.16242 428.392 2.04787 428.602 0 428.954V657.954H1008V431.907Z"
            fill="white"/>
    </g>
    <defs>
        <clipPath id="clip0_239_228">
            <rect width="1008" height="485" fill="white"/>
        </clipPath>
    </defs>
</svg>
